<svg width="95" height="95" viewBox="0 0 95 95" fill="none" xmlns="http://www.w3.org/2000/svg">
<path d="M80.9565 30.9859C80.567 31.2298 71.295 36.3756 71.295 47.7851C71.732 60.7969 82.9958 65.3601 83.189 65.3601C82.9958 65.6039 81.4885 71.5763 77.0235 77.8368C73.48 83.2296 69.547 88.6668 63.5746 88.6668C57.8936 88.6668 55.8543 85.0726 49.2993 85.0726C42.2598 85.0726 40.268 88.6668 34.8783 88.6668C28.906 88.6668 24.6816 82.9383 20.945 77.5961C16.0905 70.6041 11.9643 59.6316 11.8187 49.0961C11.7205 43.5133 12.7908 38.0254 15.5078 33.3641C19.3426 26.8566 26.189 22.4391 33.6655 22.2934C39.394 22.1003 44.4923 26.2264 47.9883 26.2264C51.3386 26.2264 57.6023 22.2934 64.6893 22.2934C67.7483 22.2966 75.9056 23.2181 80.9565 30.9859ZM47.5038 21.1788C46.4841 16.0804 49.2993 10.9821 51.9213 7.72994C55.2716 3.79694 60.5631 1.12744 65.1263 1.12744C65.4176 6.22577 63.5715 11.2259 60.2718 14.8676C57.311 18.8006 52.2127 21.7614 47.5038 21.1788Z" fill="#A4A4A4"/>
</svg>
