<svg width="130" height="130" viewBox="0 0 130 130" fill="none" xmlns="http://www.w3.org/2000/svg">
<path d="M66.1321 7.45841C60.9455 7.55107 55.843 8.07942 51.1304 8.73852C38.5636 10.4961 28.6491 13.5522 28.6491 13.5522L31.8336 23.9094C31.8336 23.9094 40.9938 21.0939 52.6327 19.4661C64.2716 17.8382 78.2301 17.7738 86.5609 21.8041C90.6271 23.7703 92.235 25.6187 92.8663 26.8928C93.4975 28.167 93.5034 29.2408 93.0144 30.8707C92.0364 34.1305 88.6281 37.9785 86.508 40.6143C86.5045 40.6143 86.501 40.6143 86.4975 40.6143C80.4752 48.1069 80.9408 58.887 87.9892 64.6719C95.0375 70.4569 106.48 71.2653 120.669 65.7616L116.755 55.6583C104.76 60.3108 97.5783 58.5193 94.8658 56.293C92.1533 54.0667 91.721 51.4242 94.9504 47.4063H94.9398C96.0486 46.0284 101.292 40.9493 103.382 33.981C104.427 30.4969 104.571 26.1329 102.568 22.0898C100.565 18.0466 96.7682 14.7041 91.2794 12.0499C85.1775 9.09793 78.2781 7.83156 71.3371 7.52188C69.6019 7.44446 67.8609 7.42752 66.1321 7.45841ZM17.5302 27.6968C16.4233 27.7303 15.3534 28.1022 14.4643 28.7623C13.5753 29.4225 12.9099 30.3392 12.5578 31.3891C10.7507 36.7849 11.0182 43.7399 12.9387 51.3419C14.8592 58.9438 18.7801 67.1021 26.5967 71.5697C30.2981 73.6843 34.5619 74.7851 38.7842 74.7859C39.252 76.7677 40.2594 78.6414 41.7147 80.0967C41.8 80.1843 41.8882 80.269 41.9792 80.3507L88.5922 121.029C88.6027 121.039 88.6133 121.05 88.6239 121.06C91.1556 123.24 94.273 123.925 97.3837 123.652L97.754 123.98L98.1137 123.621C99.4283 123.435 100.734 123.115 101.986 122.584C102.039 122.588 102.091 122.592 102.144 122.594L102.113 122.531C102.286 122.455 102.473 122.43 102.652 122.372L102.144 122.594C102.891 122.595 103.63 122.441 104.315 122.143C104.999 121.844 105.615 121.407 106.122 120.859C106.126 120.852 106.129 120.845 106.133 120.838C110.597 115.985 109.791 108.669 105.646 103.911C105.643 103.911 105.639 103.911 105.636 103.911L64.9366 57.3616C64.8549 57.2706 64.7703 57.1823 64.6827 57.0971C62.8265 55.2457 60.2955 54.0863 57.7214 53.9021C57.679 53.8991 57.6369 53.9046 57.5945 53.9021C57.5704 53.7072 57.5806 53.503 57.5521 53.3096C56.7894 48.1338 54.5003 43.161 50.3687 39.6939C43.8029 34.1824 35.9815 34.6958 30.8179 34.4888C28.2362 34.3854 26.2583 34.1071 25.1262 33.6319C23.9941 33.1568 23.4572 32.8147 22.6823 30.9871C22.2546 29.9837 21.534 29.1328 20.6147 28.5458C19.6954 27.9587 18.6204 27.6628 17.5302 27.6968ZM23.2431 44.0315C25.7073 44.688 28.1884 45.2236 30.3842 45.3116C36.2002 45.5447 40.4941 45.5426 43.4074 47.9882C44.8658 49.212 46.4065 52.0598 46.8246 54.8966C47.2427 57.7333 46.5827 60.1553 45.5445 61.2865C42.5705 64.5271 36.7346 64.8861 31.9711 62.1646C27.9414 59.8614 24.9279 54.5598 23.4441 48.6864C22.9457 46.7138 23.3857 45.9361 23.2431 44.0315ZM57.2771 65.074L65.7406 74.7436L59.3612 81.1229L49.681 72.6806L57.2771 65.074Z" fill="#69C28F"/>
</svg>
