<svg width="26" height="25" viewBox="0 0 26 25" fill="none" xmlns="http://www.w3.org/2000/svg">
<path d="M14.8997 11.2883C14.2931 11.2883 13.8031 11.9021 13.8031 12.6549C13.8031 13.4077 14.2931 14.0215 14.8997 14.0215C15.5064 14.0215 15.9964 13.4077 15.9964 12.6549C15.9964 11.9021 15.5064 11.2883 14.8997 11.2883ZM10.2331 11.2883C9.62641 11.2883 9.13641 11.9021 9.13641 12.6549C9.13641 13.4077 9.62641 14.0215 10.2331 14.0215C10.8397 14.0215 11.3297 13.4077 11.3297 12.6549C11.3297 11.9021 10.8397 11.2883 10.2331 11.2883ZM14.8997 11.2883C14.2931 11.2883 13.8031 11.9021 13.8031 12.6549C13.8031 13.4077 14.2931 14.0215 14.8997 14.0215C15.5064 14.0215 15.9964 13.4077 15.9964 12.6549C15.9964 11.9021 15.5064 11.2883 14.8997 11.2883ZM10.2331 11.2883C9.62641 11.2883 9.13641 11.9021 9.13641 12.6549C9.13641 13.4077 9.62641 14.0215 10.2331 14.0215C10.8397 14.0215 11.3297 13.4077 11.3297 12.6549C11.3297 11.9021 10.8397 11.2883 10.2331 11.2883ZM19.5664 2H5.56641C3.62974 2 2.06641 3.55191 2.06641 5.47442V19.3721C2.06641 21.2946 3.62974 22.8465 5.56641 22.8465H18.3997L17.9564 21.2136L21.4681 24.7227C22.0631 25.3134 23.0664 24.8964 23.0664 24.0742V5.47442C23.0664 3.55191 21.5031 2 19.5664 2ZM19.0647 15.5966C17.4664 17.0442 15.3781 17.0558 15.3781 17.0558L14.8764 16.3841C15.3897 16.2104 15.8331 15.9788 16.2881 15.6313L16.1831 15.3534C15.3431 15.7355 14.2581 15.9672 12.5664 15.9672C10.8747 15.9672 9.78974 15.7355 8.94974 15.3534L8.84474 15.6313C9.29974 15.9788 9.74307 16.2104 10.2564 16.3841L9.75474 17.0558C9.75474 17.0558 7.66641 17.0442 6.06807 15.5966C5.81141 15.3649 5.70641 15.0059 5.72974 14.6701C6.02141 11.323 7.05974 9.29629 7.43307 8.67089C7.51474 8.52033 7.63141 8.40452 7.77141 8.30028C8.21474 8.01075 9.32307 7.36219 10.6881 7.22321L11.0381 7.92968C11.5397 7.83703 12.0881 7.76754 12.5664 7.76754C13.0331 7.76754 13.5697 7.83703 14.0947 7.92968L14.4447 7.22321C15.7514 7.32745 16.9064 7.99917 17.3614 8.30028C17.5014 8.40452 17.6181 8.52033 17.6997 8.67089C18.0731 9.30787 19.1114 11.323 19.4031 14.6701C19.4264 15.0059 19.3214 15.3649 19.0647 15.5966ZM14.8997 11.2883C14.2931 11.2883 13.8031 11.9021 13.8031 12.6549C13.8031 13.4077 14.2931 14.0215 14.8997 14.0215C15.5064 14.0215 15.9964 13.4077 15.9964 12.6549C15.9964 11.9021 15.5064 11.2883 14.8997 11.2883ZM10.2331 11.2883C9.62641 11.2883 9.13641 11.9021 9.13641 12.6549C9.13641 13.4077 9.62641 14.0215 10.2331 14.0215C10.8397 14.0215 11.3297 13.4077 11.3297 12.6549C11.3297 11.9021 10.8397 11.2883 10.2331 11.2883Z" fill="#161616"/>
</svg>
