<svg width="130" height="130" viewBox="0 0 130 130" fill="none" xmlns="http://www.w3.org/2000/svg">
<g clip-path="url(#clip0_45_3569)">
<path d="M41.3636 0C38.1018 0 35.4545 2.64727 35.4545 5.90909V11.8182H47.2727V5.90909C47.2727 2.64727 44.6255 0 41.3636 0ZM65 0C61.7382 0 59.0909 2.64727 59.0909 5.90909V11.8182H70.9091V5.90909C70.9091 2.64727 68.2618 0 65 0ZM88.6364 0C85.3745 0 82.7273 2.64727 82.7273 5.90909V11.8182H94.5455V5.90909C94.5455 2.64727 91.8982 0 88.6364 0ZM35.4545 23.6364C28.925 23.6364 23.6364 28.925 23.6364 35.4545V94.5455C23.6364 101.075 28.925 106.364 35.4545 106.364H94.5455C101.075 106.364 106.364 101.075 106.364 94.5455V35.4545C106.364 28.925 101.075 23.6364 94.5455 23.6364H35.4545ZM5.90909 35.4545C2.64727 35.4545 0 38.1018 0 41.3636C0 44.6255 2.64727 47.2727 5.90909 47.2727H11.8182V35.4545H5.90909ZM41.3636 35.4545C44.6255 35.4545 47.2727 38.1018 47.2727 41.3636C47.2727 44.6255 44.6255 47.2727 41.3636 47.2727C38.1018 47.2727 35.4545 44.6255 35.4545 41.3636C35.4545 38.1018 38.1018 35.4545 41.3636 35.4545ZM118.182 35.4545V47.2727H124.091C127.353 47.2727 130 44.6255 130 41.3636C130 38.1018 127.353 35.4545 124.091 35.4545H118.182ZM5.90909 59.0909C2.64727 59.0909 0 61.7382 0 65C0 68.2618 2.64727 70.9091 5.90909 70.9091H11.8182V59.0909H5.90909ZM118.182 59.0909V70.9091H124.091C127.353 70.9091 130 68.2618 130 65C130 61.7382 127.353 59.0909 124.091 59.0909H118.182ZM5.90909 82.7273C2.64727 82.7273 0 85.3745 0 88.6364C0 91.8982 2.64727 94.5455 5.90909 94.5455H11.8182V82.7273H5.90909ZM88.6364 82.7273C91.8982 82.7273 94.5455 85.3745 94.5455 88.6364C94.5455 91.8982 91.8982 94.5455 88.6364 94.5455C85.3745 94.5455 82.7273 91.8982 82.7273 88.6364C82.7273 85.3745 85.3745 82.7273 88.6364 82.7273ZM118.182 82.7273V94.5455H124.091C127.353 94.5455 130 91.8982 130 88.6364C130 85.3745 127.353 82.7273 124.091 82.7273H118.182ZM35.4545 118.182V124.091C35.4545 127.353 38.1018 130 41.3636 130C44.6255 130 47.2727 127.353 47.2727 124.091V118.182H35.4545ZM59.0909 118.182V124.091C59.0909 127.353 61.7382 130 65 130C68.2618 130 70.9091 127.353 70.9091 124.091V118.182H59.0909ZM82.7273 118.182V124.091C82.7273 127.353 85.3745 130 88.6364 130C91.8982 130 94.5455 127.353 94.5455 124.091V118.182H82.7273Z" fill="#C28F69"/>
</g>
<defs>
<clipPath id="clip0_45_3569">
<rect width="130" height="130" fill="white"/>
</clipPath>
</defs>
</svg>
