<svg width="25" height="25" viewBox="0 0 25 25" fill="none" xmlns="http://www.w3.org/2000/svg">
<path d="M7.62196 2C4.55418 2 2.06641 4.61217 2.06641 7.83333V17.1667C2.06641 20.3878 4.55418 23 7.62196 23H16.5109C19.5786 23 22.0664 20.3878 22.0664 17.1667V7.83333C22.0664 4.61217 19.5786 2 16.5109 2H7.62196ZM18.7331 4.33333C19.3464 4.33333 19.8442 4.856 19.8442 5.5C19.8442 6.144 19.3464 6.66667 18.7331 6.66667C18.1197 6.66667 17.622 6.144 17.622 5.5C17.622 4.856 18.1197 4.33333 18.7331 4.33333ZM12.0664 6.66667C15.1342 6.66667 17.622 9.27883 17.622 12.5C17.622 15.7212 15.1342 18.3333 12.0664 18.3333C8.99863 18.3333 6.51085 15.7212 6.51085 12.5C6.51085 9.27883 8.99863 6.66667 12.0664 6.66667ZM12.0664 9C11.1824 9 10.3345 9.36875 9.70938 10.0251C9.08426 10.6815 8.73307 11.5717 8.73307 12.5C8.73307 13.4283 9.08426 14.3185 9.70938 14.9749C10.3345 15.6313 11.1824 16 12.0664 16C12.9505 16 13.7983 15.6313 14.4234 14.9749C15.0486 14.3185 15.3997 13.4283 15.3997 12.5C15.3997 11.5717 15.0486 10.6815 14.4234 10.0251C13.7983 9.36875 12.9505 9 12.0664 9Z" fill="#161616"/>
</svg>
