<svg width="22" height="21" viewBox="0 0 22 21" fill="none" xmlns="http://www.w3.org/2000/svg">
<path d="M18.7331 0H2.39974C1.11057 0 0.0664062 1.04417 0.0664062 2.33333V18.6667C0.0664062 19.9558 1.11057 21 2.39974 21H18.7331C20.0222 21 21.0664 19.9558 21.0664 18.6667V2.33333C21.0664 1.04417 20.0222 0 18.7331 0ZM5.59407 16.3333C4.78091 16.3333 4.12174 15.6742 4.12174 14.861V9.63783C4.12291 8.82583 4.78207 8.16667 5.59407 8.16667C6.40724 8.16667 7.06641 8.82583 7.06641 9.639V14.8622C7.06641 15.6742 6.40724 16.3333 5.59407 16.3333ZM5.54274 6.66983C4.64324 6.66983 4.04241 6.07017 4.04241 5.26983C4.04241 4.4695 4.64207 3.86983 5.64191 3.86983C6.54141 3.86983 7.14224 4.4695 7.14224 5.26983C7.14224 6.07017 6.54257 6.66983 5.54274 6.66983ZM16.1419 16.3333C15.3556 16.3333 14.7174 15.6952 14.7174 14.9088V11.8697C14.7174 10.6353 13.9579 10.5 13.6732 10.5C13.3886 10.5 12.4389 10.5408 12.4389 11.8697V14.9088C12.4389 15.6952 11.8007 16.3333 11.0144 16.3333H10.9199C10.1336 16.3333 9.49541 15.6952 9.49541 14.9088V9.639C9.49541 8.82583 10.1546 8.16667 10.9677 8.16667C11.7809 8.16667 12.4401 8.82583 12.4401 9.639C12.4401 9.639 12.7691 8.16667 15.0044 8.16667C16.4266 8.16667 17.5664 9.3065 17.5664 11.8697V14.9088C17.5664 15.6952 16.9282 16.3333 16.1419 16.3333Z" fill="#161616"/>
</svg>
