<svg width="130" height="130" viewBox="0 0 130 130" fill="none" xmlns="http://www.w3.org/2000/svg">
<path d="M69.9965 15.6001C67.1522 15.6001 64.7663 17.6956 64.4521 20.4565L54.4701 108.343C54.0998 111.576 56.6823 114.4 60.0035 114.4C62.8422 114.4 65.2337 112.305 65.5479 109.544L75.5299 21.6572C75.9002 18.4242 73.3177 15.6001 69.9965 15.6001ZM29.6957 35.9476C28.2595 35.9476 26.8232 36.4853 25.7292 37.5557L1.64517 61.1193C-0.548389 63.2654 -0.548389 66.7402 1.64517 68.8809L25.7292 92.4445C27.9172 94.5852 31.4743 94.5852 33.6623 92.4445C35.8502 90.3039 35.8502 86.8236 33.6623 84.6829L13.5447 65.0001L33.6623 45.3173C35.8558 43.1766 35.8558 39.6963 33.6623 37.5557C32.5683 36.4853 31.1319 35.9476 29.6957 35.9476ZM100.304 35.9476C98.8681 35.9476 97.4317 36.4853 96.3377 37.5557C94.1498 39.6963 94.1498 43.1766 96.3377 45.3173L116.455 65.0001L96.3377 84.6829C94.1498 86.8236 94.1498 90.3039 96.3377 92.4445C98.5257 94.5852 102.083 94.5852 104.271 92.4445L128.355 68.8809C130.548 66.7348 130.548 63.26 128.355 61.1193L104.271 37.5557C103.177 36.4853 101.74 35.9476 100.304 35.9476Z" fill="#8F69C2"/>
</svg>
