<svg width="96" height="95" viewBox="0 0 96 95" fill="none" xmlns="http://www.w3.org/2000/svg">
<path fill-rule="evenodd" clip-rule="evenodd" d="M10.9316 20.0985C20.6216 16.1738 36.6093 15.6632 43.5542 15.9244L47.9995 21.6323L52.4466 15.9244C59.3915 15.6632 75.3792 16.1718 85.0673 20.0985C83.7293 22.6397 77.9086 26.2537 74.7103 27.0572C74.5282 22.0638 67.4705 21.0227 60.6998 21.0227L47.9975 89.1417L35.2972 21.0208C28.5185 21.0208 21.4608 22.0618 21.2787 27.0552C18.0843 26.2537 12.2676 22.6397 10.9316 20.0985Z" fill="#A4A4A4"/>
<path fill-rule="evenodd" clip-rule="evenodd" d="M6.4375 13.3278L8.9174 16.9675C18.3244 13.6662 29.4889 12.0789 41.2708 11.7227C45.7299 11.5861 50.2701 11.5861 54.7252 11.7227C66.5072 12.077 77.6736 13.6643 87.0806 16.9675L89.5625 13.3278C78.4534 9.56342 66.6497 8.30863 54.8638 8.00384C50.2978 7.88707 45.7002 7.88707 41.1422 8.00384C29.3464 8.30863 17.5485 9.56342 6.4375 13.3278Z" fill="#A4A4A4"/>
</svg>
