<svg width="130" height="176" viewBox="0 0 130 176" fill="none" xmlns="http://www.w3.org/2000/svg">
<path d="M66.1321 7.45841C60.9455 7.55107 55.843 8.07942 51.1304 8.73852C38.5636 10.4961 28.6491 13.5522 28.6491 13.5522L31.8336 23.9094C31.8336 23.9094 40.9938 21.0939 52.6327 19.4661C64.2716 17.8382 78.2301 17.7738 86.5609 21.8041C90.6271 23.7703 92.235 25.6187 92.8663 26.8928C93.4975 28.167 93.5034 29.2408 93.0144 30.8707C92.0364 34.1305 88.6281 37.9785 86.508 40.6143C86.5045 40.6143 86.501 40.6143 86.4975 40.6143C80.4752 48.1069 80.9408 58.887 87.9892 64.6719C95.0375 70.4569 106.48 71.2653 120.669 65.7616L116.755 55.6583C104.76 60.3108 97.5783 58.5193 94.8658 56.293C92.1533 54.0667 91.721 51.4242 94.9504 47.4063H94.9398C96.0486 46.0284 101.292 40.9493 103.382 33.981C104.427 30.4969 104.571 26.1329 102.568 22.0898C100.565 18.0466 96.7682 14.7041 91.2794 12.0499C85.1775 9.09793 78.2781 7.83156 71.3371 7.52188C69.6019 7.44446 67.8609 7.42752 66.1321 7.45841ZM17.5302 27.6968C16.4233 27.7303 15.3534 28.1022 14.4643 28.7623C13.5753 29.4225 12.9099 30.3392 12.5578 31.3891C10.7507 36.7849 11.0182 43.7399 12.9387 51.3419C14.8592 58.9438 18.7801 67.1021 26.5967 71.5697C30.2981 73.6843 34.5619 74.7851 38.7842 74.7859C39.252 76.7677 40.2594 78.6414 41.7147 80.0967C41.8 80.1843 41.8882 80.269 41.9792 80.3507L88.5922 121.029C88.6027 121.039 88.6133 121.05 88.6239 121.06C91.1556 123.24 94.273 123.925 97.3837 123.652L97.754 123.98L98.1137 123.621C99.4283 123.435 100.734 123.115 101.986 122.584C102.039 122.588 102.091 122.592 102.144 122.594L102.113 122.531C102.286 122.455 102.473 122.43 102.652 122.372L102.144 122.594C102.891 122.595 103.63 122.441 104.315 122.143C104.999 121.844 105.615 121.407 106.122 120.859C106.126 120.852 106.129 120.845 106.133 120.838C110.597 115.985 109.791 108.669 105.646 103.911C105.643 103.911 105.639 103.911 105.636 103.911L64.9366 57.3616C64.8549 57.2706 64.7703 57.1823 64.6827 57.0971C62.8265 55.2457 60.2955 54.0863 57.7214 53.9021C57.679 53.8991 57.6369 53.9046 57.5945 53.9021C57.5704 53.7072 57.5806 53.503 57.5521 53.3096C56.7894 48.1338 54.5003 43.161 50.3687 39.6939C43.8029 34.1824 35.9815 34.6958 30.8179 34.4888C28.2362 34.3854 26.2583 34.1071 25.1262 33.6319C23.9941 33.1568 23.4572 32.8147 22.6823 30.9871C22.2546 29.9837 21.534 29.1328 20.6147 28.5458C19.6954 27.9587 18.6204 27.6628 17.5302 27.6968ZM23.2431 44.0315C25.7073 44.688 28.1884 45.2236 30.3842 45.3116C36.2002 45.5447 40.4941 45.5426 43.4074 47.9882C44.8658 49.212 46.4065 52.0598 46.8246 54.8966C47.2427 57.7333 46.5827 60.1553 45.5445 61.2865C42.5705 64.5271 36.7346 64.8861 31.9711 62.1646C27.9414 59.8614 24.9279 54.5598 23.4441 48.6864C22.9457 46.7138 23.3857 45.9361 23.2431 44.0315ZM57.2771 65.074L65.7406 74.7436L59.3612 81.1229L49.681 72.6806L57.2771 65.074Z" fill="#69C28F"/>
<path d="M37.9205 165H32.7642V150.455H37.9631C39.4261 150.455 40.6856 150.746 41.7415 151.328C42.7973 151.906 43.6094 152.737 44.1776 153.821C44.7505 154.905 45.0369 156.203 45.0369 157.713C45.0369 159.228 44.7505 160.53 44.1776 161.619C43.6094 162.708 42.7926 163.544 41.7273 164.126C40.6667 164.709 39.3977 165 37.9205 165ZM35.8395 162.365H37.7926C38.7017 162.365 39.4664 162.204 40.0866 161.882C40.7116 161.555 41.1804 161.051 41.4929 160.369C41.8101 159.683 41.9688 158.797 41.9688 157.713C41.9688 156.638 41.8101 155.76 41.4929 155.078C41.1804 154.396 40.714 153.894 40.0938 153.572C39.4735 153.25 38.7088 153.089 37.7997 153.089H35.8395V162.365ZM51.8298 165.213C50.7076 165.213 49.7417 164.986 48.932 164.531C48.1271 164.072 47.5068 163.423 47.0712 162.585C46.6356 161.742 46.4178 160.746 46.4178 159.595C46.4178 158.473 46.6356 157.488 47.0712 156.641C47.5068 155.793 48.12 155.133 48.9107 154.659C49.7062 154.186 50.6389 153.949 51.709 153.949C52.4287 153.949 53.0987 154.065 53.719 154.297C54.344 154.524 54.8885 154.867 55.3525 155.327C55.8212 155.786 56.1858 156.364 56.4462 157.06C56.7067 157.751 56.8369 158.561 56.8369 159.489V160.32H47.6252V158.445H53.9889C53.9889 158.009 53.8942 157.623 53.7048 157.287C53.5154 156.951 53.2526 156.688 52.9164 156.499C52.585 156.304 52.1991 156.207 51.7587 156.207C51.2995 156.207 50.8923 156.314 50.5371 156.527C50.1868 156.735 49.9121 157.017 49.7133 157.372C49.5144 157.723 49.4126 158.113 49.4079 158.544V160.327C49.4079 160.866 49.5073 161.333 49.7062 161.726C49.9098 162.119 50.1962 162.422 50.5656 162.635C50.9349 162.848 51.3728 162.955 51.8795 162.955C52.2156 162.955 52.5234 162.907 52.8028 162.812C53.0821 162.718 53.3212 162.576 53.5201 162.386C53.719 162.197 53.8705 161.965 53.9746 161.69L56.7729 161.875C56.6309 162.547 56.3397 163.134 55.8994 163.636C55.4638 164.134 54.9003 164.522 54.209 164.801C53.5225 165.076 52.7294 165.213 51.8298 165.213ZM67.488 157.202L64.7181 157.372C64.6708 157.135 64.569 156.922 64.4127 156.733C64.2565 156.539 64.0505 156.385 63.7948 156.271C63.5439 156.153 63.2432 156.094 62.8928 156.094C62.4241 156.094 62.0287 156.193 61.7067 156.392C61.3848 156.586 61.2238 156.847 61.2238 157.173C61.2238 157.434 61.328 157.654 61.5363 157.834C61.7446 158.014 62.1021 158.158 62.6087 158.267L64.5832 158.665C65.6438 158.883 66.4345 159.233 66.9553 159.716C67.4762 160.199 67.7366 160.833 67.7366 161.619C67.7366 162.334 67.5259 162.962 67.1045 163.501C66.6878 164.041 66.1149 164.463 65.3857 164.766C64.6613 165.064 63.8256 165.213 62.8786 165.213C61.4345 165.213 60.2839 164.912 59.4269 164.311C58.5746 163.705 58.0751 162.881 57.9283 161.839L60.9042 161.683C60.9942 162.124 61.212 162.46 61.5576 162.692C61.9032 162.919 62.346 163.033 62.8857 163.033C63.416 163.033 63.8422 162.931 64.1641 162.727C64.4908 162.519 64.6566 162.251 64.6613 161.925C64.6566 161.65 64.5406 161.425 64.3133 161.25C64.086 161.07 63.7356 160.933 63.2621 160.838L61.3729 160.462C60.3076 160.249 59.5145 159.879 58.9937 159.354C58.4776 158.828 58.2195 158.158 58.2195 157.344C58.2195 156.643 58.4089 156.039 58.7877 155.533C59.1712 155.026 59.7086 154.635 60.3999 154.361C61.096 154.086 61.9103 153.949 62.8431 153.949C64.221 153.949 65.3052 154.24 66.096 154.822C66.8914 155.405 67.3554 156.198 67.488 157.202ZM69.2418 165V154.091H72.2673V165H69.2418ZM70.7616 152.685C70.3118 152.685 69.9259 152.536 69.604 152.237C69.2867 151.934 69.1281 151.572 69.1281 151.151C69.1281 150.734 69.2867 150.376 69.604 150.078C69.9259 149.775 70.3118 149.624 70.7616 149.624C71.2115 149.624 71.595 149.775 71.9122 150.078C72.2342 150.376 72.3952 150.734 72.3952 151.151C72.3952 151.572 72.2342 151.934 71.9122 152.237C71.595 152.536 71.2115 152.685 70.7616 152.685ZM79.2058 169.318C78.2256 169.318 77.3852 169.183 76.6844 168.913C75.9884 168.648 75.4344 168.286 75.0225 167.827C74.6106 167.367 74.3431 166.851 74.22 166.278L77.0183 165.902C77.1035 166.12 77.2384 166.323 77.4231 166.513C77.6077 166.702 77.8516 166.854 78.1546 166.967C78.4624 167.086 78.8364 167.145 79.2768 167.145C79.9349 167.145 80.4771 166.984 80.9032 166.662C81.3341 166.345 81.5495 165.812 81.5495 165.064V163.068H81.4217C81.2891 163.371 81.0902 163.658 80.8251 163.928C80.5599 164.197 80.219 164.418 79.8023 164.588C79.3857 164.759 78.8885 164.844 78.3109 164.844C77.4917 164.844 76.746 164.654 76.0737 164.276C75.406 163.892 74.8734 163.307 74.4756 162.521C74.0826 161.731 73.8862 160.732 73.8862 159.524C73.8862 158.288 74.0874 157.256 74.4898 156.428C74.8923 155.599 75.4273 154.979 76.095 154.567C76.7673 154.155 77.5036 153.949 78.3038 153.949C78.9146 153.949 79.4259 154.053 79.8379 154.261C80.2498 154.465 80.5812 154.721 80.8322 155.028C81.0879 155.331 81.2844 155.63 81.4217 155.923H81.5353V154.091H84.5396V165.107C84.5396 166.035 84.3123 166.811 83.8577 167.436C83.4032 168.061 82.7735 168.53 81.9685 168.842C81.1683 169.16 80.2474 169.318 79.2058 169.318ZM79.2697 162.571C79.7574 162.571 80.1693 162.45 80.5055 162.209C80.8464 161.963 81.1068 161.612 81.2867 161.158C81.4714 160.698 81.5637 160.149 81.5637 159.51C81.5637 158.871 81.4737 158.317 81.2938 157.848C81.1139 157.375 80.8535 157.008 80.5126 156.747C80.1717 156.487 79.7574 156.357 79.2697 156.357C78.7725 156.357 78.3535 156.491 78.0126 156.761C77.6717 157.027 77.4136 157.396 77.2384 157.869C77.0632 158.343 76.9756 158.89 76.9756 159.51C76.9756 160.14 77.0632 160.684 77.2384 161.143C77.4183 161.598 77.6764 161.951 78.0126 162.202C78.3535 162.448 78.7725 162.571 79.2697 162.571ZM89.5728 158.693V165H86.5472V154.091H89.4308V156.016H89.5586C89.8001 155.381 90.2049 154.879 90.7731 154.51C91.3413 154.136 92.0302 153.949 92.8398 153.949C93.5974 153.949 94.2579 154.115 94.8214 154.446C95.3848 154.777 95.8228 155.251 96.1353 155.866C96.4478 156.477 96.604 157.206 96.604 158.054V165H93.5785V158.594C93.5832 157.926 93.4128 157.405 93.0671 157.031C92.7215 156.652 92.2456 156.463 91.6396 156.463C91.2324 156.463 90.8725 156.551 90.56 156.726C90.2522 156.901 90.0108 157.157 89.8356 157.493C89.6651 157.824 89.5775 158.224 89.5728 158.693Z" fill="#69C28F"/>
</svg>
