<svg width="130" height="176" viewBox="0 0 130 176" fill="none" xmlns="http://www.w3.org/2000/svg">
<g clip-path="url(#clip0_602_4919)">
<path d="M41.3636 0C38.1018 0 35.4545 2.64727 35.4545 5.90909V11.8182H47.2727V5.90909C47.2727 2.64727 44.6255 0 41.3636 0ZM65 0C61.7382 0 59.0909 2.64727 59.0909 5.90909V11.8182H70.9091V5.90909C70.9091 2.64727 68.2618 0 65 0ZM88.6364 0C85.3745 0 82.7273 2.64727 82.7273 5.90909V11.8182H94.5455V5.90909C94.5455 2.64727 91.8982 0 88.6364 0ZM35.4545 23.6364C28.925 23.6364 23.6364 28.925 23.6364 35.4545V94.5455C23.6364 101.075 28.925 106.364 35.4545 106.364H94.5455C101.075 106.364 106.364 101.075 106.364 94.5455V35.4545C106.364 28.925 101.075 23.6364 94.5455 23.6364H35.4545ZM5.90909 35.4545C2.64727 35.4545 0 38.1018 0 41.3636C0 44.6255 2.64727 47.2727 5.90909 47.2727H11.8182V35.4545H5.90909ZM41.3636 35.4545C44.6255 35.4545 47.2727 38.1018 47.2727 41.3636C47.2727 44.6255 44.6255 47.2727 41.3636 47.2727C38.1018 47.2727 35.4545 44.6255 35.4545 41.3636C35.4545 38.1018 38.1018 35.4545 41.3636 35.4545ZM118.182 35.4545V47.2727H124.091C127.353 47.2727 130 44.6255 130 41.3636C130 38.1018 127.353 35.4545 124.091 35.4545H118.182ZM5.90909 59.0909C2.64727 59.0909 0 61.7382 0 65C0 68.2618 2.64727 70.9091 5.90909 70.9091H11.8182V59.0909H5.90909ZM118.182 59.0909V70.9091H124.091C127.353 70.9091 130 68.2618 130 65C130 61.7382 127.353 59.0909 124.091 59.0909H118.182ZM5.90909 82.7273C2.64727 82.7273 0 85.3745 0 88.6364C0 91.8982 2.64727 94.5455 5.90909 94.5455H11.8182V82.7273H5.90909ZM88.6364 82.7273C91.8982 82.7273 94.5455 85.3745 94.5455 88.6364C94.5455 91.8982 91.8982 94.5455 88.6364 94.5455C85.3745 94.5455 82.7273 91.8982 82.7273 88.6364C82.7273 85.3745 85.3745 82.7273 88.6364 82.7273ZM118.182 82.7273V94.5455H124.091C127.353 94.5455 130 91.8982 130 88.6364C130 85.3745 127.353 82.7273 124.091 82.7273H118.182ZM35.4545 118.182V124.091C35.4545 127.353 38.1018 130 41.3636 130C44.6255 130 47.2727 127.353 47.2727 124.091V118.182H35.4545ZM59.0909 118.182V124.091C59.0909 127.353 61.7382 130 65 130C68.2618 130 70.9091 127.353 70.9091 124.091V118.182H59.0909ZM82.7273 118.182V124.091C82.7273 127.353 85.3745 130 88.6364 130C91.8982 130 94.5455 127.353 94.5455 124.091V118.182H82.7273Z" fill="#C28F69"/>
</g>
<path d="M19.7642 165V150.455H22.8395V156.456H29.0824V150.455H32.1506V165H29.0824V158.991H22.8395V165H19.7642ZM37.3401 165.206C36.644 165.206 36.0238 165.085 35.4793 164.844C34.9348 164.598 34.5039 164.235 34.1866 163.757C33.8741 163.274 33.7179 162.673 33.7179 161.953C33.7179 161.347 33.8292 160.838 34.0517 160.426C34.2742 160.014 34.5773 159.683 34.9608 159.432C35.3443 159.181 35.7799 158.991 36.2676 158.864C36.76 158.736 37.2761 158.646 37.8159 158.594C38.4504 158.527 38.9617 158.466 39.35 158.409C39.7383 158.348 40.02 158.258 40.1952 158.139C40.3704 158.021 40.458 157.846 40.458 157.614V157.571C40.458 157.121 40.3159 156.773 40.0318 156.527C39.7525 156.281 39.3547 156.158 38.8386 156.158C38.2941 156.158 37.8609 156.278 37.5389 156.52C37.217 156.757 37.0039 157.055 36.8997 157.415L34.1014 157.188C34.2435 156.525 34.5228 155.952 34.9395 155.469C35.3562 154.981 35.8936 154.607 36.5517 154.347C37.2146 154.081 37.9816 153.949 38.8528 153.949C39.4589 153.949 40.0389 154.02 40.5929 154.162C41.1516 154.304 41.6464 154.524 42.0773 154.822C42.5129 155.121 42.8562 155.504 43.1071 155.973C43.358 156.437 43.4835 156.993 43.4835 157.642V165H40.6142V163.487H40.529C40.3538 163.828 40.1194 164.129 39.8259 164.389C39.5323 164.645 39.1795 164.846 38.7676 164.993C38.3557 165.135 37.8798 165.206 37.3401 165.206ZM38.2065 163.118C38.6516 163.118 39.0446 163.03 39.3855 162.855C39.7264 162.675 39.9939 162.434 40.1881 162.131C40.3822 161.828 40.4793 161.484 40.4793 161.101V159.943C40.3846 160.005 40.2544 160.062 40.0886 160.114C39.9277 160.161 39.7454 160.206 39.5418 160.249C39.3382 160.286 39.1346 160.322 38.931 160.355C38.7274 160.384 38.5427 160.41 38.377 160.433C38.0219 160.485 37.7117 160.568 37.4466 160.682C37.1814 160.795 36.9755 160.949 36.8287 161.143C36.6819 161.333 36.6085 161.57 36.6085 161.854C36.6085 162.266 36.7577 162.58 37.056 162.798C37.359 163.011 37.7425 163.118 38.2065 163.118ZM45.4308 165V154.091H48.3641V155.994H48.4777C48.6766 155.317 49.0104 154.806 49.4791 154.46C49.9479 154.11 50.4876 153.935 51.0984 153.935C51.25 153.935 51.4133 153.944 51.5885 153.963C51.7637 153.982 51.9176 154.008 52.0501 154.041V156.726C51.9081 156.683 51.7116 156.645 51.4607 156.612C51.2097 156.579 50.9801 156.562 50.7717 156.562C50.3267 156.562 49.9289 156.66 49.5786 156.854C49.2329 157.043 48.9583 157.308 48.7547 157.649C48.5558 157.99 48.4564 158.383 48.4564 158.828V165H45.4308ZM56.7265 165.178C55.8979 165.178 55.1474 164.964 54.4751 164.538C53.8075 164.107 53.2772 163.475 52.8842 162.642C52.4959 161.804 52.3018 160.777 52.3018 159.56C52.3018 158.31 52.503 157.27 52.9055 156.442C53.3079 155.608 53.843 154.986 54.5106 154.574C55.1829 154.157 55.9192 153.949 56.7194 153.949C57.3302 153.949 57.8392 154.053 58.2464 154.261C58.6583 154.465 58.9897 154.721 59.2407 155.028C59.4964 155.331 59.6905 155.63 59.8231 155.923H59.9154V150.455H62.9339V165H59.9509V163.253H59.8231C59.681 163.556 59.4798 163.857 59.2194 164.155C58.9637 164.448 58.6299 164.692 58.218 164.886C57.8108 165.08 57.3136 165.178 56.7265 165.178ZM57.6853 162.77C58.173 162.77 58.5849 162.637 58.9211 162.372C59.262 162.102 59.5224 161.726 59.7023 161.243C59.887 160.76 59.9793 160.194 59.9793 159.545C59.9793 158.897 59.8894 158.333 59.7094 157.855C59.5295 157.377 59.2691 157.008 58.9282 156.747C58.5873 156.487 58.173 156.357 57.6853 156.357C57.1881 156.357 56.7691 156.491 56.4282 156.761C56.0873 157.031 55.8292 157.405 55.654 157.884C55.4789 158.362 55.3913 158.916 55.3913 159.545C55.3913 160.18 55.4789 160.741 55.654 161.229C55.834 161.712 56.092 162.09 56.4282 162.365C56.7691 162.635 57.1881 162.77 57.6853 162.77ZM67.1734 165L64.2047 154.091H67.2658L68.9561 161.42H69.0555L70.8169 154.091H73.8212L75.6109 161.378H75.7033L77.3652 154.091H80.4192L77.4575 165H74.2544L72.3794 158.139H72.2445L70.3695 165H67.1734ZM84.744 165.206C84.0479 165.206 83.4277 165.085 82.8832 164.844C82.3387 164.598 81.9078 164.235 81.5906 163.757C81.2781 163.274 81.1218 162.673 81.1218 161.953C81.1218 161.347 81.2331 160.838 81.4556 160.426C81.6781 160.014 81.9812 159.683 82.3647 159.432C82.7482 159.181 83.1838 158.991 83.6715 158.864C84.1639 158.736 84.68 158.646 85.2198 158.594C85.8543 158.527 86.3656 158.466 86.7539 158.409C87.1422 158.348 87.4239 158.258 87.5991 158.139C87.7743 158.021 87.8619 157.846 87.8619 157.614V157.571C87.8619 157.121 87.7198 156.773 87.4357 156.527C87.1564 156.281 86.7586 156.158 86.2425 156.158C85.698 156.158 85.2648 156.278 84.9428 156.52C84.6209 156.757 84.4078 157.055 84.3036 157.415L81.5053 157.188C81.6474 156.525 81.9267 155.952 82.3434 155.469C82.7601 154.981 83.2975 154.607 83.9556 154.347C84.6185 154.081 85.3855 153.949 86.2567 153.949C86.8628 153.949 87.4428 154.02 87.9968 154.162C88.5555 154.304 89.0503 154.524 89.4812 154.822C89.9168 155.121 90.2601 155.504 90.511 155.973C90.762 156.437 90.8874 156.993 90.8874 157.642V165H88.0181V163.487H87.9329C87.7577 163.828 87.5233 164.129 87.2298 164.389C86.9362 164.645 86.5835 164.846 86.1715 164.993C85.7596 165.135 85.2837 165.206 84.744 165.206ZM85.6104 163.118C86.0555 163.118 86.4485 163.03 86.7894 162.855C87.1303 162.675 87.3978 162.434 87.592 162.131C87.7861 161.828 87.8832 161.484 87.8832 161.101V159.943C87.7885 160.005 87.6583 160.062 87.4925 160.114C87.3316 160.161 87.1493 160.206 86.9457 160.249C86.7421 160.286 86.5385 160.322 86.3349 160.355C86.1313 160.384 85.9466 160.41 85.7809 160.433C85.4258 160.485 85.1156 160.568 84.8505 160.682C84.5853 160.795 84.3794 160.949 84.2326 161.143C84.0858 161.333 84.0124 161.57 84.0124 161.854C84.0124 162.266 84.1616 162.58 84.4599 162.798C84.7629 163.011 85.1464 163.118 85.6104 163.118ZM92.8347 165V154.091H95.768V155.994H95.8816C96.0805 155.317 96.4143 154.806 96.883 154.46C97.3518 154.11 97.8915 153.935 98.5023 153.935C98.6539 153.935 98.8172 153.944 98.9924 153.963C99.1676 153.982 99.3215 154.008 99.454 154.041V156.726C99.312 156.683 99.1155 156.645 98.8646 156.612C98.6136 156.579 98.384 156.562 98.1756 156.562C97.7306 156.562 97.3328 156.66 96.9825 156.854C96.6368 157.043 96.3622 157.308 96.1586 157.649C95.9597 157.99 95.8603 158.383 95.8603 158.828V165H92.8347ZM105.082 165.213C103.96 165.213 102.994 164.986 102.184 164.531C101.379 164.072 100.759 163.423 100.324 162.585C99.888 161.742 99.6702 160.746 99.6702 159.595C99.6702 158.473 99.888 157.488 100.324 156.641C100.759 155.793 101.372 155.133 102.163 154.659C102.959 154.186 103.891 153.949 104.961 153.949C105.681 153.949 106.351 154.065 106.971 154.297C107.596 154.524 108.141 154.867 108.605 155.327C109.074 155.786 109.438 156.364 109.699 157.06C109.959 157.751 110.089 158.561 110.089 159.489V160.32H100.878V158.445H107.241C107.241 158.009 107.146 157.623 106.957 157.287C106.768 156.951 106.505 156.688 106.169 156.499C105.837 156.304 105.451 156.207 105.011 156.207C104.552 156.207 104.145 156.314 103.789 156.527C103.439 156.735 103.164 157.017 102.966 157.372C102.767 157.723 102.665 158.113 102.66 158.544V160.327C102.66 160.866 102.76 161.333 102.959 161.726C103.162 162.119 103.449 162.422 103.818 162.635C104.187 162.848 104.625 162.955 105.132 162.955C105.468 162.955 105.776 162.907 106.055 162.812C106.334 162.718 106.574 162.576 106.772 162.386C106.971 162.197 107.123 161.965 107.227 161.69L110.025 161.875C109.883 162.547 109.592 163.134 109.152 163.636C108.716 164.134 108.153 164.522 107.461 164.801C106.775 165.076 105.982 165.213 105.082 165.213Z" fill="#C28F69"/>
<defs>
<clipPath id="clip0_602_4919">
<rect width="130" height="130" fill="white"/>
</clipPath>
</defs>
</svg>
