<svg version="1.1" id="Layer_1" xmlns="http://www.w3.org/2000/svg" xmlns:xlink="http://www.w3.org/1999/xlink" x="0px" y="0px"
	 width="100%" viewBox="0 0 130 176" enable-background="new 0 0 130 176" xml:space="preserve">
<path fill="#000000" opacity="1.000000" stroke="none" 
	d="
M131.000000,70.000000 
	C131.000000,105.621262 131.000000,141.242523 131.000000,176.931885 
	C87.767334,176.931885 44.534527,176.931885 1.000000,176.931885 
	C1.000000,141.646347 1.000000,106.291832 1.215331,70.127289 
	C2.665453,70.420883 3.953091,71.471313 5.126336,72.636894 
	C11.980456,79.446251 18.764494,86.326721 25.661583,93.092056 
	C29.361568,96.721352 35.139473,95.754982 36.235996,91.016220 
	C36.686077,89.071129 35.241985,86.042641 33.705803,84.397568 
	C27.851952,78.128799 21.609232,72.223152 15.307264,65.979179 
	C21.827213,59.537201 27.777882,53.713688 33.662350,47.824036 
	C37.629501,43.853382 37.874325,41.156933 34.710838,38.213833 
	C32.313034,35.983074 27.996807,36.498817 25.050135,39.434299 
	C18.205214,46.253231 11.413966,53.126423 4.523229,59.898525 
	C3.575636,60.829807 2.185338,61.310631 1.000000,62.000000 
	C1.000000,41.702015 1.000000,21.404032 1.000000,1.053024 
	C44.222595,1.053024 87.445274,1.053024 131.000000,1.053024 
	C131.000000,21.019670 131.000000,41.041176 130.784485,61.872517 
	C129.334335,61.578465 128.047012,60.527611 126.873741,59.361961 
	C120.019661,52.552380 113.235619,45.671741 106.338478,38.906292 
	C102.639664,35.278103 96.860878,36.244823 95.763451,40.982834 
	C95.313065,42.927288 96.756836,45.957352 98.293808,47.600414 
	C104.153091,53.864159 110.401558,59.763859 116.712265,66.004898 
	C110.174553,72.462769 104.222748,78.285378 98.337769,84.174767 
	C94.367493,88.148003 94.123268,90.838882 97.287712,93.784470 
	C99.685730,96.016632 103.999413,95.501923 106.948517,92.564461 
	C113.794060,85.745949 120.585472,78.872719 127.476585,72.100792 
	C128.424133,71.169624 129.814590,70.689133 131.000000,70.000000 
M79.523827,156.091537 
	C79.577377,157.416168 79.931915,158.813202 79.633659,160.053223 
	C78.143013,166.250977 79.053680,167.264053 85.240852,166.062225 
	C86.329887,165.850677 87.471565,165.910126 88.537430,165.847473 
	C90.043747,154.398407 88.885612,153.304871 78.848282,156.387192 
	C78.765480,156.412598 78.605026,156.185165 78.641769,155.344498 
	C76.713982,156.260544 74.786194,157.176590 73.095444,157.980011 
	C72.821457,157.628052 71.956268,155.473465 70.772568,155.281357 
	C69.518684,155.077835 67.961967,156.740128 66.544632,157.583298 
	C65.106598,154.715958 61.981861,154.005829 53.454704,154.655975 
	C53.877525,153.782227 54.686428,152.743759 54.767925,151.651031 
	C54.803814,151.169846 53.110256,149.962051 52.636829,150.154449 
	C51.306843,150.694901 49.585865,151.552963 49.135410,152.717545 
	C48.127998,155.322098 47.502712,157.362228 44.170040,155.181763 
	C43.340282,154.638855 41.895435,155.024628 40.732941,155.003830 
	C37.013382,154.937286 36.094013,157.068604 35.920975,160.422073 
	C35.711361,164.484421 38.171612,166.737350 41.278790,166.652298 
	C43.226448,166.598969 45.277637,163.708664 46.906914,161.774902 
	C47.596123,160.956879 47.320728,159.326141 47.483772,158.064819 
	C47.779652,158.113007 48.075535,158.161209 48.371418,158.209412 
	C48.933949,160.869736 49.496483,163.530075 50.059017,166.190399 
	C50.639095,166.053940 51.219170,165.917465 51.799248,165.780991 
	C51.920612,163.351700 52.041977,160.922394 52.161163,158.536682 
	C56.731491,156.775085 55.600060,160.046097 56.111965,162.280197 
	C56.450085,163.755875 57.704998,165.124405 58.832336,166.260086 
	C59.222950,166.653610 60.465229,166.201721 61.318504,166.135986 
	C60.936943,164.851654 60.320816,163.582169 60.238232,162.278885 
	C60.151573,160.911331 60.576401,159.511353 60.777695,158.125549 
	C61.534767,159.036560 62.527065,159.842026 62.994228,160.883118 
	C63.709335,162.476791 64.062431,164.232925 64.925835,167.107483 
	C67.189682,165.420959 68.969444,164.095078 70.285309,163.114777 
	C71.405800,163.948914 72.772156,164.966064 74.138504,165.983215 
	C75.091232,164.686478 76.311272,163.504669 76.930458,162.064529 
	C77.742905,160.174896 78.081688,158.081635 79.523827,156.091537 
M63.997787,32.341152 
	C62.997837,40.966003 61.974388,49.588219 61.005512,58.216560 
	C60.254864,64.901497 59.642498,71.602478 58.843407,78.281334 
	C57.618954,88.515442 56.297058,98.737968 54.995567,108.962753 
	C54.428268,113.419556 57.017605,115.626091 60.845123,115.860573 
	C64.699295,116.096680 66.670692,113.448616 67.000488,109.642456 
	C67.340729,105.715805 67.635307,101.782639 68.095184,97.869408 
	C69.356041,87.140259 70.684135,76.418961 72.003410,65.696739 
	C72.862793,58.712231 73.811676,51.738255 74.613976,44.747337 
	C75.474098,37.252651 76.222191,29.744953 76.994171,22.240362 
	C77.418900,18.111555 74.550186,16.559456 71.353104,16.122124 
	C67.929504,15.653804 65.746506,17.981544 65.113770,21.166121 
	C64.445786,24.528099 64.347107,28.003191 63.997787,32.341152 
M90.001991,163.236954 
	C90.889008,164.286636 91.776024,165.336319 93.046608,166.839905 
	C94.038025,162.895782 94.665100,160.401123 95.292183,157.906464 
	C95.735054,158.015930 96.177933,158.125412 96.620804,158.234894 
	C96.913071,159.825867 96.665672,161.982376 97.613251,162.886581 
	C99.421745,164.612289 101.971169,166.798203 104.105988,166.689575 
	C108.646706,166.458496 108.193100,162.417862 107.978218,159.096680 
	C107.776413,155.977631 105.850517,154.929779 102.935280,154.982422 
	C98.773575,155.057602 94.609489,155.001572 89.999710,155.001572 
	C89.999710,157.734985 89.999710,160.024506 90.001991,163.236954 
M32.654373,157.932709 
	C30.841002,157.266113 29.027630,156.599518 27.214256,155.932922 
	C27.342409,155.438156 27.470560,154.943375 27.598713,154.448608 
	C29.959702,154.969925 32.320690,155.491241 34.681679,156.012558 
	C34.978725,155.397736 35.275776,154.782898 35.572826,154.168076 
	C33.883305,153.120468 32.308327,151.540344 30.478140,151.146667 
	C27.533503,150.513260 24.246490,150.873657 23.325066,154.460602 
	C22.458679,157.833298 24.796909,159.304581 27.802116,160.081512 
	C28.996962,160.390396 30.041586,161.280319 31.154598,161.905731 
	C30.955309,162.315063 30.756018,162.724411 30.556726,163.133759 
	C28.159966,162.409073 25.763205,161.684372 23.366446,160.959686 
	C23.048140,161.535233 22.729834,162.110779 22.411530,162.686325 
	C24.292377,164.106949 26.015518,166.279526 28.102512,166.717239 
	C29.864870,167.086853 32.985577,165.976547 33.795822,164.550247 
	C34.690620,162.975143 33.638672,160.294128 32.654373,157.932709 
z"/>
<path fill="#8F69C2" opacity="1.000000" stroke="none" 
	d="
M1.000000,62.444164 
	C2.185338,61.310631 3.575636,60.829807 4.523229,59.898525 
	C11.413966,53.126423 18.205214,46.253231 25.050135,39.434299 
	C27.996807,36.498817 32.313034,35.983074 34.710838,38.213833 
	C37.874325,41.156933 37.629501,43.853382 33.662350,47.824036 
	C27.777882,53.713688 21.827213,59.537201 15.307264,65.979179 
	C21.609232,72.223152 27.851952,78.128799 33.705803,84.397568 
	C35.241985,86.042641 36.686077,89.071129 36.235996,91.016220 
	C35.139473,95.754982 29.361568,96.721352 25.661583,93.092056 
	C18.764494,86.326721 11.980456,79.446251 5.126336,72.636894 
	C3.953091,71.471313 2.665453,70.420883 1.215331,69.658630 
	C1.000000,67.629440 1.000000,65.258888 1.000000,62.444164 
z"/>
<path fill="#8F69C2" opacity="1.000000" stroke="none" 
	d="
M131.000000,69.555832 
	C129.814590,70.689133 128.424133,71.169624 127.476585,72.100792 
	C120.585472,78.872719 113.794060,85.745949 106.948517,92.564461 
	C103.999413,95.501923 99.685730,96.016632 97.287712,93.784470 
	C94.123268,90.838882 94.367493,88.148003 98.337769,84.174767 
	C104.222748,78.285378 110.174553,72.462769 116.712265,66.004898 
	C110.401558,59.763859 104.153091,53.864159 98.293808,47.600414 
	C96.756836,45.957352 95.313065,42.927288 95.763451,40.982834 
	C96.860878,36.244823 102.639664,35.278103 106.338478,38.906292 
	C113.235619,45.671741 120.019661,52.552380 126.873741,59.361961 
	C128.047012,60.527611 129.334335,61.578465 130.784485,62.341175 
	C131.000000,64.370560 131.000000,66.741112 131.000000,69.555832 
z"/>
<path fill="#8F69C2" opacity="1.000000" stroke="none" 
	d="
M63.998756,31.885010 
	C64.347107,28.003191 64.445786,24.528099 65.113770,21.166121 
	C65.746506,17.981544 67.929504,15.653804 71.353104,16.122124 
	C74.550186,16.559456 77.418900,18.111555 76.994171,22.240362 
	C76.222191,29.744953 75.474098,37.252651 74.613976,44.747337 
	C73.811676,51.738255 72.862793,58.712231 72.003410,65.696739 
	C70.684135,76.418961 69.356041,87.140259 68.095184,97.869408 
	C67.635307,101.782639 67.340729,105.715805 67.000488,109.642456 
	C66.670692,113.448616 64.699295,116.096680 60.845123,115.860573 
	C57.017605,115.626091 54.428268,113.419556 54.995567,108.962753 
	C56.297058,98.737968 57.618954,88.515442 58.843407,78.281334 
	C59.642498,71.602478 60.254864,64.901497 61.005512,58.216560 
	C61.974388,49.588219 62.997837,40.966003 63.998756,31.885010 
z"/>
<path fill="#8F69C2" opacity="1.000000" stroke="none" 
	d="
M78.624184,156.075943 
	C78.081688,158.081635 77.742905,160.174896 76.930458,162.064529 
	C76.311272,163.504669 75.091232,164.686478 74.138504,165.983215 
	C72.772156,164.966064 71.405800,163.948914 70.285309,163.114777 
	C68.969444,164.095078 67.189682,165.420959 64.925835,167.107483 
	C64.062431,164.232925 63.709335,162.476791 62.994228,160.883118 
	C62.527065,159.842026 61.534767,159.036560 60.777695,158.125549 
	C60.576401,159.511353 60.151573,160.911331 60.238232,162.278885 
	C60.320816,163.582169 60.936943,164.851654 61.318504,166.135986 
	C60.465229,166.201721 59.222950,166.653610 58.832336,166.260086 
	C57.704998,165.124405 56.450085,163.755875 56.111965,162.280197 
	C55.600060,160.046097 56.731491,156.775085 52.161163,158.536682 
	C52.041977,160.922394 51.920612,163.351700 51.799248,165.780991 
	C51.219170,165.917465 50.639095,166.053940 50.059017,166.190399 
	C49.496483,163.530075 48.933949,160.869736 48.371418,158.209412 
	C48.075535,158.161209 47.779652,158.113007 47.483772,158.064819 
	C47.320728,159.326141 47.596123,160.956879 46.906914,161.774902 
	C45.277637,163.708664 43.226448,166.598969 41.278790,166.652298 
	C38.171612,166.737350 35.711361,164.484421 35.920975,160.422073 
	C36.094013,157.068604 37.013382,154.937286 40.732941,155.003830 
	C41.895435,155.024628 43.340282,154.638855 44.170040,155.181763 
	C47.502712,157.362228 48.127998,155.322098 49.135410,152.717545 
	C49.585865,151.552963 51.306843,150.694901 52.636829,150.154449 
	C53.110256,149.962051 54.803814,151.169846 54.767925,151.651031 
	C54.686428,152.743759 53.877525,153.782227 53.454704,154.655975 
	C61.981861,154.005829 65.106598,154.715958 66.544632,157.583298 
	C67.961967,156.740128 69.518684,155.077835 70.772568,155.281357 
	C71.956268,155.473465 72.821457,157.628052 73.095444,157.980011 
	C74.786194,157.176590 76.713982,156.260544 78.597137,155.707077 
	C78.552513,156.069656 78.624184,156.075943 78.624184,156.075943 
z"/>
<path fill="#8F69C2" opacity="1.000000" stroke="none" 
	d="
M90.000854,162.775497 
	C89.999710,160.024506 89.999710,157.734985 89.999710,155.001572 
	C94.609489,155.001572 98.773575,155.057602 102.935280,154.982422 
	C105.850517,154.929779 107.776413,155.977631 107.978218,159.096680 
	C108.193100,162.417862 108.646706,166.458496 104.105988,166.689575 
	C101.971169,166.798203 99.421745,164.612289 97.613251,162.886581 
	C96.665672,161.982376 96.913071,159.825867 96.620804,158.234894 
	C96.177933,158.125412 95.735054,158.015930 95.292183,157.906464 
	C94.665100,160.401123 94.038025,162.895782 93.046608,166.839905 
	C91.776024,165.336319 90.889008,164.286636 90.000854,162.775497 
z"/>
<path fill="#8F69C2" opacity="1.000000" stroke="none" 
	d="
M33.044502,158.013748 
	C33.638672,160.294128 34.690620,162.975143 33.795822,164.550247 
	C32.985577,165.976547 29.864870,167.086853 28.102512,166.717239 
	C26.015518,166.279526 24.292377,164.106949 22.411530,162.686325 
	C22.729834,162.110779 23.048140,161.535233 23.366446,160.959686 
	C25.763205,161.684372 28.159966,162.409073 30.556726,163.133759 
	C30.756018,162.724411 30.955309,162.315063 31.154598,161.905731 
	C30.041586,161.280319 28.996962,160.390396 27.802116,160.081512 
	C24.796909,159.304581 22.458679,157.833298 23.325066,154.460602 
	C24.246490,150.873657 27.533503,150.513260 30.478140,151.146667 
	C32.308327,151.540344 33.883305,153.120468 35.572826,154.168076 
	C35.275776,154.782898 34.978725,155.397736 34.681679,156.012558 
	C32.320690,155.491241 29.959702,154.969925 27.598713,154.448608 
	C27.470560,154.943375 27.342409,155.438156 27.214256,155.932922 
	C29.027630,156.599518 30.841002,157.266113 33.044502,158.013748 
z"/>
<path fill="#8F69C2" opacity="1.000000" stroke="none" 
	d="
M78.516670,156.072723 
	C78.605026,156.185165 78.765480,156.412598 78.848282,156.387192 
	C88.885612,153.304871 90.043747,154.398407 88.537430,165.847473 
	C87.471565,165.910126 86.329887,165.850677 85.240852,166.062225 
	C79.053680,167.264053 78.143013,166.250977 79.633659,160.053223 
	C79.931915,158.813202 79.577377,157.416168 79.074005,156.083740 
	C78.624184,156.075943 78.552513,156.069656 78.516670,156.072723 
z"/>
</svg>