<svg width="14" height="14" viewBox="0 0 14 14" fill="none" xmlns="http://www.w3.org/2000/svg">
<path d="M3.4987 4.08301C1.88811 4.08301 0.582031 5.38909 0.582031 6.99967C0.582031 8.61026 1.88811 9.91634 3.4987 9.91634H5.83203V8.74967H3.4987C2.53211 8.74967 1.7487 7.96626 1.7487 6.99967C1.7487 6.03309 2.53211 5.24967 3.4987 5.24967H5.83203V4.08301H3.4987ZM8.16537 4.08301V5.24967H10.4987C11.4653 5.24967 12.2487 6.03309 12.2487 6.99967C12.2487 7.96626 11.4653 8.74967 10.4987 8.74967H8.16537V9.91634H10.4987C12.1093 9.91634 13.4154 8.61026 13.4154 6.99967C13.4154 5.38909 12.1093 4.08301 10.4987 4.08301H8.16537ZM4.08203 6.41634V7.58301H9.91537V6.41634H4.08203Z" fill="#161616"/>
</svg>
